<svg id="Componente_11_1" data-name="Componente 11 – 1" xmlns="http://www.w3.org/2000/svg" width="150" height="150" viewBox="0 0 150 150">
  <rect id="Rectángulo_32" data-name="Rectángulo 32" width="150" height="150" rx="45" fill="#156471"/>
  <g id="Grupo_316" data-name="Grupo 316" transform="translate(4856 -1182.667)">
    <g id="Grupo_315" data-name="Grupo 315" transform="translate(-4825 1213)">
      <g id="Grupo_314" data-name="Grupo 314" transform="translate(0)">
        <g id="Grupo_313" data-name="Grupo 313" transform="translate(0)">
          <g id="Grupo_312" data-name="Grupo 312" transform="translate(0)">
            <g id="Grupo_311" data-name="Grupo 311">
              <g id="Grupo_310" data-name="Grupo 310">
                <g id="Grupo_309" data-name="Grupo 309">
                  <g id="Grupo_308" data-name="Grupo 308">
                    <g id="Grupo_307" data-name="Grupo 307">
                      <g id="Grupo_306" data-name="Grupo 306">
                        <g id="Grupo_305" data-name="Grupo 305">
                          <g id="Grupo_304" data-name="Grupo 304">
                            <g id="mega-bola" transform="translate(0)">
                              <g id="Grupo_303" data-name="Grupo 303" transform="translate(0)">
                                <g id="Grupo_288" data-name="Grupo 288" transform="translate(1.057 1.057)">
                                  <circle id="Elipse_32" data-name="Elipse 32" cx="43.443" cy="43.443" r="43.443" fill="#d988ff"/>
                                </g>
                                <g id="Grupo_289" data-name="Grupo 289" transform="translate(1.057 11.225)">
                                  <ellipse id="Elipse_33" data-name="Elipse 33" cx="43.443" cy="33.274" rx="43.443" ry="33.274" fill="#bf44f2"/>
                                </g>
                                <g id="Grupo_290" data-name="Grupo 290" transform="translate(60.506 5.074)">
                                  <path id="Trazado_178" data-name="Trazado 178" d="M110.138,30.292A43.587,43.587,0,0,0,88.124,7.2a16.619,16.619,0,0,0,22.014,23.09Z" transform="translate(-85.888 -7.202)" fill="#d988ff"/>
                                </g>
                                <g id="Grupo_291" data-name="Grupo 291" transform="translate(4.245 5.074)">
                                  <path id="Trazado_179" data-name="Trazado 179" d="M6.026,30.292A16.619,16.619,0,0,0,28.038,7.2,43.579,43.579,0,0,0,6.026,30.292Z" transform="translate(-6.026 -7.202)" fill="#d988ff"/>
                                </g>
                                <g id="Grupo_292" data-name="Grupo 292" transform="translate(1.057 44.5)">
                                  <path id="Trazado_180" data-name="Trazado 180" d="M1.5,63.166a43.443,43.443,0,1,0,86.886,0Z" transform="translate(-1.501 -63.166)" fill="#fff"/>
                                </g>
                                <g id="Grupo_293" data-name="Grupo 293" transform="translate(1.057 44.5)">
                                  <path id="Trazado_181" data-name="Trazado 181" d="M44.944,96.44c23.993,0,43.443-14.9,43.443-33.274H1.5C1.5,81.542,20.951,96.44,44.944,96.44Z" transform="translate(-1.501 -63.166)" fill="#d8e5ea"/>
                                </g>
                                <path id="Trazado_182" data-name="Trazado 182" d="M85.749,27.831c-.007-.022,0-.044-.013-.066-.045-.11-.1-.216-.142-.326-.1-.251-.216-.5-.324-.747-.19-.435-.384-.869-.588-1.3-.075-.157-.153-.312-.23-.468-.259-.528-.525-1.05-.8-1.565l-.077-.139A44.321,44.321,0,0,0,67.611,6.486l-.09-.056q-.774-.467-1.568-.9c-.138-.076-.275-.154-.415-.229-.431-.231-.868-.453-1.308-.671-.23-.114-.459-.23-.692-.34-.118-.056-.232-.118-.352-.173-.023-.011-.047-.008-.069-.018a44.346,44.346,0,0,0-37.235,0c-.023.008-.046.007-.069.018-.119.055-.233.117-.352.173-.232.111-.462.226-.693.341-.44.218-.876.439-1.307.67-.139.075-.278.153-.416.23q-.794.436-1.567.9l-.092.056a44.317,44.317,0,0,0-15.94,16.7l-.108.2c-.265.492-.519.99-.766,1.493-.089.182-.181.363-.268.547-.188.4-.367.8-.545,1.2-.124.281-.249.561-.367.846-.041.1-.087.194-.127.293-.008.019,0,.039-.012.058A44.5,44.5,0,1,0,89,44.5,44.247,44.247,0,0,0,85.749,27.831ZM63.191,6.469a42.641,42.641,0,0,1,20.193,21.18,15.366,15.366,0,0,1-6.254,1.312A15.562,15.562,0,0,1,63.191,6.469Zm-1.918-.888A17.676,17.676,0,0,0,77.13,31.075a17.46,17.46,0,0,0,7.048-1.469,42.138,42.138,0,0,1,2.682,13.838H2.141A42.141,42.141,0,0,1,4.823,29.606a17.452,17.452,0,0,0,7.048,1.469A17.676,17.676,0,0,0,27.728,5.581a42.3,42.3,0,0,1,33.546,0ZM6.249,26.253c.02-.042.039-.086.059-.129A42.665,42.665,0,0,1,25.81,6.469,15.562,15.562,0,0,1,11.872,28.961a15.356,15.356,0,0,1-6.254-1.312C5.821,27.18,6.029,26.713,6.249,26.253ZM44.5,86.887A42.428,42.428,0,0,1,2.141,45.556H86.86A42.428,42.428,0,0,1,44.5,86.887Z" transform="translate(-0.001)" fill="#33363a"/>
                                <g id="Grupo_298" data-name="Grupo 298" transform="translate(31.639 31.634)">
                                  <g id="Grupo_294" data-name="Grupo 294" transform="translate(1.051 5.073)">
                                    <circle id="Elipse_34" data-name="Elipse 34" cx="11.81" cy="11.81" r="11.81" fill="#a7bbc1"/>
                                  </g>
                                  <g id="Grupo_295" data-name="Grupo 295" transform="translate(1.051 1.057)">
                                    <circle id="Elipse_35" data-name="Elipse 35" cx="11.81" cy="11.81" r="11.81" fill="#fff"/>
                                  </g>
                                  <g id="Grupo_296" data-name="Grupo 296" transform="translate(1.051 1.056)">
                                    <path id="Trazado_183" data-name="Trazado 183" d="M49.862,66.564a11.81,11.81,0,0,1,16.7-16.7" transform="translate(-46.403 -46.403)" fill="#d8e5ea"/>
                                  </g>
                                  <g id="Grupo_297" data-name="Grupo 297">
                                    <path id="Trazado_184" data-name="Trazado 184" d="M57.772,70.637a12.867,12.867,0,1,1,9.1-21.966h0a12.867,12.867,0,0,1-9.1,21.966Zm0-23.621a10.753,10.753,0,1,0,7.6,3.149A10.682,10.682,0,0,0,57.772,47.016Z" transform="translate(-44.911 -44.903)" fill="#33363a"/>
                                  </g>
                                </g>
                                <g id="Grupo_302" data-name="Grupo 302" transform="translate(37.767 37.763)">
                                  <g id="Grupo_299" data-name="Grupo 299" transform="translate(1.053 1.058)">
                                    <path id="Trazado_185" data-name="Trazado 185" d="M64.8,64.8a5.681,5.681,0,1,1,0-8.033A5.685,5.685,0,0,1,64.8,64.8Z" transform="translate(-55.105 -55.105)" fill="#fff"/>
                                  </g>
                                  <g id="Grupo_300" data-name="Grupo 300" transform="translate(2.717 1.058)">
                                    <path id="Trazado_186" data-name="Trazado 186" d="M57.466,56.769A5.681,5.681,0,1,1,65.5,64.8" transform="translate(-57.466 -55.105)" fill="#d8e5ea"/>
                                  </g>
                                  <g id="Grupo_301" data-name="Grupo 301">
                                    <path id="Trazado_187" data-name="Trazado 187" d="M60.343,67.074a6.735,6.735,0,0,1,0-13.47h0a6.738,6.738,0,0,1,4.764,11.5h0A6.718,6.718,0,0,1,60.343,67.074Zm0-11.357a4.624,4.624,0,1,0,3.271,1.355,4.591,4.591,0,0,0-3.271-1.355Z" transform="translate(-53.61 -53.604)" fill="#33363a"/>
                                  </g>
                                </g>
                              </g>
                              <path id="Trazado_188" data-name="Trazado 188" d="M65.689,23.405H55.474a1.056,1.056,0,0,0-1.057,1.057v8.576a1.057,1.057,0,0,0,2.113,0v-7.52h2.994v7.52a1.057,1.057,0,1,0,2.113,0v-7.52h2.994v7.52a1.057,1.057,0,1,0,2.113,0V24.462A1.057,1.057,0,0,0,65.689,23.405Z" transform="translate(-16.082 -6.916)" fill="#33363a"/>
                            </g>
                          </g>
                        </g>
                      </g>
                    </g>
                  </g>
                </g>
              </g>
            </g>
          </g>
        </g>
      </g>
    </g>
  </g>
</svg>
