<svg id="caramelo" xmlns="http://www.w3.org/2000/svg" width="127.739" height="127.74" viewBox="0 0 127.739 127.74">
  <g id="Grupo_447" data-name="Grupo 447">
    <g id="Grupo_439" data-name="Grupo 439">
      <path id="Trazado_262" data-name="Trazado 262" d="M63.875,126.238a62.369,62.369,0,1,1,62.363-62.369A62.421,62.421,0,0,1,63.875,126.238Z" fill="#2af42f"/>
    </g>
    <g id="Grupo_440" data-name="Grupo 440">
      <path id="Trazado_263" data-name="Trazado 263" d="M63.869,1.5a62.369,62.369,0,0,1,.006,124.738" fill="#1ad88f"/>
    </g>
    <g id="Grupo_441" data-name="Grupo 441">
      <path id="Trazado_264" data-name="Trazado 264" d="M8.516,35.145h110.71a62.424,62.424,0,0,0-6.158-9.586h-98.4A62.343,62.343,0,0,0,8.516,35.145Z" fill="#fdffdc"/>
    </g>
    <g id="Grupo_442" data-name="Grupo 442">
      <path id="Trazado_265" data-name="Trazado 265" d="M63.871,35.145h55.355s0,0,0-.006q-.651-1.251-1.355-2.469c-.012-.02-.023-.037-.033-.057q-.7-1.21-1.455-2.383c-.012-.017-.023-.037-.035-.055-.506-.785-1.029-1.561-1.568-2.32-.006-.01-.014-.019-.021-.029q-.817-1.155-1.686-2.267h-49.2Z" fill="#e6ff2e"/>
    </g>
    <g id="Grupo_443" data-name="Grupo 443">
      <path id="Trazado_266" data-name="Trazado 266" d="M1.5,63.865A62.237,62.237,0,0,0,4.515,83H123.237a62.465,62.465,0,0,0,0-38.27H4.505A62.322,62.322,0,0,0,1.5,63.865Z" fill="#fdffdc"/>
    </g>
    <g id="Grupo_444" data-name="Grupo 444">
      <path id="Trazado_267" data-name="Trazado 267" d="M126.107,60q-.059-.944-.143-1.877c-.035-.387-.072-.775-.115-1.16-.061-.557-.135-1.107-.211-1.656-.057-.408-.105-.816-.17-1.221q-.19-1.217-.432-2.418c-.113-.566-.242-1.129-.371-1.691-.068-.3-.135-.6-.209-.906-.143-.59-.3-1.174-.457-1.758-.066-.24-.135-.48-.205-.723-.18-.623-.361-1.244-.56-1.859H63.871l0,38.27h59.363c.2-.617.381-1.24.561-1.863.068-.24.139-.479.205-.719.16-.584.313-1.17.457-1.762.072-.3.139-.6.207-.895.129-.566.26-1.133.373-1.705.158-.8.3-1.6.432-2.41.064-.408.113-.82.17-1.231.076-.547.148-1.094.209-1.646.043-.387.08-.775.115-1.166q.085-.932.143-1.873c.021-.324.043-.648.059-.975.043-.959.072-1.922.072-2.891s-.029-1.934-.072-2.891C126.15,60.652,126.126,60.328,126.107,60Z" fill="#e6ff2e"/>
    </g>
    <g id="Grupo_445" data-name="Grupo 445">
      <path id="Trazado_268" data-name="Trazado 268" d="M14.7,102.18h98.366a62.436,62.436,0,0,0,6.16-9.586H8.532A62.491,62.491,0,0,0,14.7,102.18Z" fill="#fdffdc"/>
    </g>
    <g id="Grupo_446" data-name="Grupo 446">
      <path id="Trazado_269" data-name="Trazado 269" d="M63.873,92.594v9.586h49.191q.87-1.116,1.689-2.27c.006-.008.012-.018.018-.025q.812-1.146,1.572-2.328l.029-.043q.756-1.181,1.463-2.395l.024-.043q.709-1.221,1.363-2.48l0,0Z" fill="#e6ff2e"/>
    </g>
    <path id="Trazado_270" data-name="Trazado 270" d="M124.664,83.464c.04-.123.073-.248.112-.371.092-.292.177-.587.265-.881.182-.609.358-1.219.521-1.833q.15-.558.29-1.12c.144-.582.277-1.166.4-1.751.078-.358.161-.715.234-1.076q.27-1.344.483-2.7c.044-.28.076-.564.116-.845.1-.686.188-1.373.263-2.062.038-.353.071-.708.1-1.063q.091-1,.152-2c.019-.319.041-.637.056-.957.045-.979.074-1.96.074-2.944,0-.956-.027-1.909-.07-2.862-.016-.354-.041-.706-.062-1.06q-.053-.861-.126-1.719-.06-.691-.135-1.38c-.045-.4-.1-.808-.149-1.212A63.838,63.838,0,0,0,63.891,0h-.022a63.77,63.77,0,0,0-50.18,24.435,1.455,1.455,0,0,0-.2.2c-.236.3-.456.616-.686.922-.07.093-.139.187-.209.281q-.78,1.052-1.517,2.132-.151.222-.3.445-.677,1.011-1.312,2.045-.183.3-.362.593c-.389.647-.763,1.3-1.128,1.959-.139.25-.278.5-.413.752-.124.23-.258.456-.378.688a1.422,1.422,0,0,0-.062.169A63.439,63.439,0,0,0,3.117,44.2c-.011.028-.03.049-.04.078-.037.114-.067.229-.1.342-.1.313-.189.629-.284.944q-.266.886-.507,1.779-.153.569-.295,1.139c-.144.579-.276,1.161-.4,1.744-.078.358-.161.714-.234,1.075-.178.9-.342,1.8-.483,2.7-.043.274-.074.552-.114.827-.1.692-.189,1.385-.265,2.08-.038.351-.071.7-.1,1.057q-.093,1-.153,2c-.019.318-.041.635-.056.954C.031,61.9,0,62.881,0,63.865H0c0,.985.03,1.968.076,2.949.015.315.036.628.055.942q.061,1.006.154,2.011c.033.352.065.705.1,1.055.075.684.164,1.365.261,2.046.041.289.074.581.12.87q.21,1.341.48,2.673c.078.392.169.779.255,1.168.119.542.242,1.084.376,1.623.1.417.212.832.323,1.246.145.538.3,1.074.458,1.608.11.369.217.74.334,1.107.032.1.059.2.091.3.008.025.025.043.034.067A63.572,63.572,0,0,0,7.151,93.15a1.318,1.318,0,0,0,.05.137c.095.183.2.361.3.544.2.364.4.725.6,1.085q.448.8.918,1.6.286.479.581.95.521.838,1.065,1.66.273.41.551.815.6.88,1.239,1.74c.161.218.322.436.485.652.195.257.38.522.578.776a1.523,1.523,0,0,0,.164.167,63.824,63.824,0,0,0,50.2,24.469h0a63.8,63.8,0,0,0,50.173-24.434,1.4,1.4,0,0,0,.2-.2c.239-.306.462-.625.7-.935.069-.091.137-.184.205-.276q.783-1.053,1.521-2.138c.1-.145.2-.291.295-.437q.68-1.016,1.318-2.055c.119-.193.237-.385.354-.579q.594-.988,1.149-2c.128-.231.257-.462.382-.695s.265-.469.389-.707a1.441,1.441,0,0,0,.064-.177,63.55,63.55,0,0,0,4-9.561C124.632,83.518,124.654,83.5,124.664,83.464Zm0-16.821c-.013.281-.03.562-.046.843-.04.681-.093,1.358-.155,2.033-.025.27-.046.54-.074.809q-.138,1.3-.33,2.591c-.042.281-.094.561-.14.842q-.151.918-.327,1.828-.1.516-.211,1.03c-.131.612-.273,1.219-.422,1.824-.065.263-.124.528-.192.79-.2.763-.418,1.519-.646,2.271H5.623c-.225-.739-.439-1.483-.636-2.233-.083-.315-.154-.632-.231-.948-.136-.556-.267-1.114-.388-1.676q-.117-.542-.223-1.084-.174-.888-.32-1.786c-.048-.289-.1-.576-.145-.865q-.193-1.287-.331-2.592c-.029-.264-.049-.53-.074-.8q-.094-1.02-.157-2.05c-.016-.276-.033-.553-.046-.83C3.03,65.723,3,64.8,3,63.866s.029-1.854.071-2.775c.013-.282.03-.563.047-.844q.06-1.021.156-2.033c.025-.27.046-.54.074-.809q.138-1.3.331-2.592c.042-.28.094-.558.14-.838q.152-.923.329-1.837.1-.511.209-1.02.2-.926.426-1.839c.064-.259.122-.519.189-.778.2-.762.418-1.516.646-2.266H122.132q.646,2.136,1.133,4.308c0,.011,0,.023.008.034q.237,1.061.436,2.128c.016.087.03.174.045.261.187,1.028.341,2.062.475,3.1.056.442.116.883.163,1.327.041.382.072.766.106,1.15.049.569.092,1.139.125,1.712.018.309.037.618.051.928.039.894.066,1.789.066,2.689C124.738,64.8,124.709,65.723,124.667,66.643Zm-6.384,24.451H9.467A60.254,60.254,0,0,1,6.618,84.5H121.13A60.606,60.606,0,0,1,118.283,91.094ZM112.3,100.68H15.456c-.109-.143-.225-.279-.332-.422-.006-.008-.011-.016-.017-.023q-.839-1.121-1.624-2.281l-.1-.138q-.78-1.155-1.507-2.348c-.048-.079-.094-.158-.141-.237-.226-.374-.437-.757-.655-1.136H116.666A61.081,61.081,0,0,1,112.3,100.68ZM9.456,36.645H118.325a59.991,59.991,0,0,1,2.84,6.59H6.611A60.425,60.425,0,0,1,9.456,36.645Zm5.983-9.586H112.33a60.982,60.982,0,0,1,4.367,6.586H11.073A61.029,61.029,0,0,1,15.439,27.059ZM63.87,3h.021a60.44,60.44,0,0,1,43.021,17.825c1.044,1.044,2.029,2.129,2.987,3.233H17.889A60.724,60.724,0,0,1,63.87,3Zm.005,121.738a60.779,60.779,0,0,1-45.969-21.059h91.943A60.758,60.758,0,0,1,63.875,124.738Z" fill="#33363a"/>
  </g>
  <g id="Grupo_448" data-name="Grupo 448">
    <path id="Trazado_271" data-name="Trazado 271" d="M28.917,20.938a1.5,1.5,0,0,1-.963-2.651A56.208,56.208,0,0,1,47.675,7.59a1.5,1.5,0,0,1,.875,2.87A53.221,53.221,0,0,0,29.878,20.591,1.507,1.507,0,0,1,28.917,20.938Z" fill="#cdffbb"/>
  </g>
  <g id="Grupo_449" data-name="Grupo 449">
    <path id="Trazado_272" data-name="Trazado 272" d="M53.11,9.309a1.5,1.5,0,0,1-1.061-2.56,1.548,1.548,0,0,1,2.12,0,1.5,1.5,0,0,1-1.059,2.56Z" fill="#cdffbb"/>
  </g>
</svg>
