<svg id="huevo" xmlns="http://www.w3.org/2000/svg" width="99.334" height="126.666" viewBox="0 0 99.334 126.666">
  <g id="Grupo_462" data-name="Grupo 462" transform="translate(-13.666)">
    <path id="Trazado_283" data-name="Trazado 283" d="M111.5,77a48.167,48.167,0,0,1-96.334,0c0-26.6,21.564-75.5,48.168-75.5S111.5,50.4,111.5,77Z" fill="#fffffa"/>
  </g>
  <g id="Grupo_463" data-name="Grupo 463" transform="translate(-13.666)">
    <path id="Trazado_284" data-name="Trazado 284" d="M63.334,1.5V125.166A48.166,48.166,0,0,0,111.5,77C111.5,50.4,89.936,1.5,63.334,1.5Z" fill="#f9f9e4"/>
  </g>
  <g id="Grupo_466" data-name="Grupo 466" transform="translate(-13.666)">
    <g id="Grupo_464" data-name="Grupo 464">
      <path id="Trazado_285" data-name="Trazado 285" d="M33.486,104.326c4.445,4.857,9.34,7.236,6.738,9.617s-8.316.371-12.762-4.486S21.526,98.73,24.13,96.348,29.043,99.465,33.486,104.326Z" fill="#d7a642"/>
    </g>
    <g id="Grupo_465" data-name="Grupo 465">
      <path id="Trazado_286" data-name="Trazado 286" d="M93.18,104.326c-4.445,4.857-9.34,7.236-6.738,9.617s8.316.371,12.762-4.486,5.936-10.727,3.332-13.109S97.623,99.465,93.18,104.326Z" fill="#c67f27"/>
    </g>
  </g>
  <g id="Grupo_467" data-name="Grupo 467" transform="translate(-13.666)">
    <path id="Trazado_287" data-name="Trazado 287" d="M63.334,126.666A49.723,49.723,0,0,1,13.666,77c0-13.942,5.612-32.964,14.3-48.46C38.282,10.136,50.843,0,63.334,0S88.385,10.136,98.7,28.54C107.388,44.036,113,63.058,113,77A49.722,49.722,0,0,1,63.334,126.666ZM63.334,3C48.01,3,36.236,19.921,30.582,30.007,22.128,45.088,16.666,63.534,16.666,77A46.667,46.667,0,0,0,110,77c0-13.466-5.462-31.912-13.916-46.993C90.431,19.921,78.657,3,63.334,3Z" fill="#33363a"/>
  </g>
  <g id="Grupo_468" data-name="Grupo 468" transform="translate(39.461 55.111)">
    <path id="Trazado_288" data-name="Trazado 288" d="M100.165,89.47c-7.838,13.575-23.842,21.016-35.749,16.62S58.041,93.7,65.879,80.125,80.888,52.536,92.794,56.934,108,75.9,100.165,89.47Z" transform="translate(-57.521 -56.111)" fill="#d7a642"/>
  </g>
  <g id="Grupo_469" data-name="Grupo 469" transform="translate(46.731 55.111)">
    <path id="Trazado_289" data-name="Trazado 289" d="M91.338,56.934c-11.906-4.4-19.08,9.618-26.914,23.191L63.335,82v24.209C75.2,110.323,90.956,102.9,98.71,89.47,106.544,75.9,103.244,61.328,91.338,56.934Z" transform="translate(-63.335 -56.111)" fill="#c67f27"/>
  </g>
  <g id="Grupo_470" data-name="Grupo 470" transform="translate(-13.666)">
    <circle id="Elipse_36" data-name="Elipse 36" cx="3.06" cy="3.06" r="3.06" transform="translate(32.576 35.487)" fill="#d7a642"/>
  </g>
  <g id="Grupo_471" data-name="Grupo 471" transform="translate(-10.666 -8)">
    <circle id="Elipse_37" data-name="Elipse 37" cx="1.197" cy="1.197" r="1.197" transform="translate(45.481 22.713)" fill="#d7a642"/>
  </g>
  <g id="Grupo_472" data-name="Grupo 472" transform="translate(-13.666)">
    <circle id="Elipse_38" data-name="Elipse 38" cx="1.73" cy="1.73" r="1.73" transform="translate(38.696 54.38)" fill="#d7a642"/>
  </g>
  <g id="Grupo_473" data-name="Grupo 473" transform="translate(-13.666)">
    <circle id="Elipse_39" data-name="Elipse 39" cx="1.73" cy="1.73" r="1.73" transform="translate(65.662 111.486)" fill="#c67f27"/>
  </g>
  <g id="Grupo_474" data-name="Grupo 474" transform="translate(-13.666)">
    <circle id="Elipse_40" data-name="Elipse 40" cx="1.73" cy="1.73" r="1.73" transform="translate(57.521 109.756)" fill="#d7a642"/>
  </g>
  <g id="Grupo_475" data-name="Grupo 475" transform="translate(-13.666)">
    <circle id="Elipse_41" data-name="Elipse 41" cx="3.537" cy="3.537" r="3.537" transform="translate(80.342 26.44)" fill="#c67f27"/>
  </g>
  <g id="Grupo_476" data-name="Grupo 476" transform="translate(-13.666)">
    <circle id="Elipse_42" data-name="Elipse 42" cx="3.46" cy="3.46" r="3.46" transform="translate(90.453 41.606)" fill="#c67f27"/>
  </g>
  <g id="Grupo_477" data-name="Grupo 477" transform="translate(-13.666)">
    <circle id="Elipse_43" data-name="Elipse 43" cx="3.459" cy="3.459" r="3.459" transform="translate(41.209 87.988)" fill="#d7a642"/>
  </g>
  <g id="Grupo_478" data-name="Grupo 478" transform="translate(31.815 17.52)">
    <path id="Trazado_290" data-name="Trazado 290" d="M72.477,45.139c0,10.563,4.48,19.128-5.906,19.128a19.133,19.133,0,0,1,0-38.26C76.957,26.008,72.477,34.576,72.477,45.139Z" transform="translate(-47.766 -26.007)" fill="#d7a642"/>
  </g>
  <g id="Grupo_479" data-name="Grupo 479" transform="translate(51.754 17.566)">
    <path id="Trazado_291" data-name="Trazado 291" d="M63.334,64.213c8.9-.628,4.771-8.929,4.771-19.084s4.133-18.46-4.771-19.088Z" transform="translate(-63.334 -26.042)" fill="#c67f27"/>
  </g>
</svg>
