<svg id="Egg_Button" data-name="Egg Button" xmlns="http://www.w3.org/2000/svg" width="150" height="150" viewBox="0 0 150 150">
  <g id="Rectángulo_31" data-name="Rectángulo 31" fill="#156471" stroke="#707070" stroke-width="1">
    <rect width="150" height="150" rx="45" stroke="none"/>
    <rect x="0.5" y="0.5" width="149" height="149" rx="44.5" fill="none"/>
  </g>
  <g id="pokemon" transform="translate(10.646 11)">
    <g id="Grupo_90" data-name="Grupo 90">
      <g id="Grupo_83" data-name="Grupo 83">
        <g id="Grupo_67" data-name="Grupo 67">
          <rect id="Rectángulo_27" data-name="Rectángulo 27" width="68.193" height="91.309" transform="translate(29.854 23.846)" fill="#adb8bc"/>
        </g>
        <g id="Grupo_68" data-name="Grupo 68">
          <rect id="Rectángulo_28" data-name="Rectángulo 28" width="27.596" height="91.309" transform="translate(50.152 23.846)" fill="#93a0a3"/>
        </g>
        <g id="Grupo_69" data-name="Grupo 69">
          <rect id="Rectángulo_29" data-name="Rectángulo 29" width="68.193" height="8.486" transform="translate(29.854 106.668)" fill="#ff8b00"/>
        </g>
        <g id="Grupo_70" data-name="Grupo 70">
          <rect id="Rectángulo_30" data-name="Rectángulo 30" width="68.193" height="4.243" transform="translate(29.854 106.668)" fill="#ffb000"/>
        </g>
        <g id="Grupo_71" data-name="Grupo 71">
          <path id="Trazado_41" data-name="Trazado 41" d="M29.854,115.154H98.047L89.377,126.4H38.522Z" fill="#ebf4f7"/>
        </g>
        <g id="Grupo_72" data-name="Grupo 72">
          <path id="Trazado_42" data-name="Trazado 42" d="M98.047,23.992H29.854L38.522,1.5H89.377Z" fill="#ebf4f7"/>
        </g>
        <g id="Grupo_75" data-name="Grupo 75">
          <g id="Grupo_73" data-name="Grupo 73">
            <path id="Trazado_43" data-name="Trazado 43" d="M50.152,115.154h27.6L74.24,126.4H53.66Z" fill="#d8e5ea"/>
          </g>
          <g id="Grupo_74" data-name="Grupo 74">
            <path id="Trazado_44" data-name="Trazado 44" d="M77.748,23.992h-27.6L53.66,1.5H74.24Z" fill="#d8e5ea"/>
          </g>
        </g>
        <path id="Trazado_45" data-name="Trazado 45" d="M99.26,22.97,90.776.96a1.5,1.5,0,0,0-1.4-.96H38.521a1.5,1.5,0,0,0-1.4.96L28.64,22.97a1.489,1.489,0,0,0-.286.875v91.308c0,.032.007.062.01.094s.006.074.011.111a1.429,1.429,0,0,0,.073.3c.007.019.01.039.018.058a1.5,1.5,0,0,0,.182.322.313.313,0,0,0,.018.031l8.668,11.246a1.5,1.5,0,0,0,1.188.584H89.377a1.5,1.5,0,0,0,1.188-.584l8.67-11.246c.007-.009.01-.02.017-.029a1.453,1.453,0,0,0,.185-.326c.007-.017.01-.034.016-.052a1.48,1.48,0,0,0,.074-.307c0-.036.009-.072.011-.108s.01-.062.01-.1V23.846A1.494,1.494,0,0,0,99.26,22.97Zm-2.713,2.522v79.676H31.354V25.492ZM31.354,108.168H96.547v5.486H31.354ZM39.551,3h48.8l7.457,19.346H32.1ZM88.64,124.9H39.259L32.9,116.654H95Z" fill="#33363a"/>
        <g id="Grupo_78" data-name="Grupo 78">
          <g id="Grupo_76" data-name="Grupo 76">
            <path id="Trazado_46" data-name="Trazado 46" d="M77.328,12.709a4,4,0,0,1-4,4H54.572a4,4,0,0,1-4-4v-.75a4,4,0,0,1,4-4H73.328a4,4,0,0,1,4,4Z" fill="#ff8b00"/>
          </g>
          <g id="Grupo_77" data-name="Grupo 77">
            <path id="Trazado_47" data-name="Trazado 47" d="M73.328,18.209H54.572a5.506,5.506,0,0,1-5.5-5.5v-.75a5.506,5.506,0,0,1,5.5-5.5H73.328a5.507,5.507,0,0,1,5.5,5.5v.75A5.507,5.507,0,0,1,73.328,18.209ZM54.572,9.459a2.5,2.5,0,0,0-2.5,2.5v.75a2.5,2.5,0,0,0,2.5,2.5H73.328a2.5,2.5,0,0,0,2.5-2.5v-.75a2.5,2.5,0,0,0-2.5-2.5Z" fill="#33363a"/>
          </g>
        </g>
        <g id="Grupo_79" data-name="Grupo 79">
          <path id="Trazado_48" data-name="Trazado 48" d="M36.367,81.853a1.5,1.5,0,0,1-1.5-1.5V38.834a1.5,1.5,0,0,1,3,0V80.353A1.5,1.5,0,0,1,36.367,81.853Z" fill="#fdfeff"/>
        </g>
        <g id="Grupo_80" data-name="Grupo 80">
          <path id="Trazado_49" data-name="Trazado 49" d="M36.367,34.334a1.5,1.5,0,0,1-1.5-1.5V29.981a1.5,1.5,0,1,1,3,0v2.853A1.5,1.5,0,0,1,36.367,34.334Z" fill="#fdfeff"/>
        </g>
        <g id="Grupo_81" data-name="Grupo 81">
          <path id="Trazado_50" data-name="Trazado 50" d="M36.367,90.334a1.5,1.5,0,0,1-1.5-1.5V85.981a1.5,1.5,0,0,1,3,0v2.853A1.5,1.5,0,0,1,36.367,90.334Z" fill="#fdfeff"/>
        </g>
        <g id="Grupo_82" data-name="Grupo 82">
          <path id="Trazado_51" data-name="Trazado 51" d="M36.367,99.084a1.5,1.5,0,0,1-1.5-1.5V94.731a1.5,1.5,0,0,1,3,0v2.853A1.5,1.5,0,0,1,36.367,99.084Z" fill="#fdfeff"/>
        </g>
      </g>
      <g id="Grupo_89" data-name="Grupo 89">
        <g id="Grupo_84" data-name="Grupo 84">
          <path id="Trazado_52" data-name="Trazado 52" d="M51.867,122.277H50.7a1.5,1.5,0,0,1,0-3h1.166a1.5,1.5,0,1,1,0,3Z" fill="#33363a"/>
        </g>
        <g id="Grupo_85" data-name="Grupo 85">
          <path id="Trazado_53" data-name="Trazado 53" d="M58.2,122.277H57.033a1.5,1.5,0,0,1,0-3H58.2a1.5,1.5,0,0,1,0,3Z" fill="#33363a"/>
        </g>
        <g id="Grupo_86" data-name="Grupo 86">
          <path id="Trazado_54" data-name="Trazado 54" d="M64.533,122.277H63.367a1.5,1.5,0,0,1,0-3h1.166a1.5,1.5,0,0,1,0,3Z" fill="#33363a"/>
        </g>
        <g id="Grupo_87" data-name="Grupo 87">
          <path id="Trazado_55" data-name="Trazado 55" d="M70.867,122.277H69.7a1.5,1.5,0,0,1,0-3h1.168a1.5,1.5,0,0,1,0,3Z" fill="#33363a"/>
        </g>
        <g id="Grupo_88" data-name="Grupo 88">
          <path id="Trazado_56" data-name="Trazado 56" d="M77.2,122.277H76.033a1.5,1.5,0,0,1,0-3H77.2a1.5,1.5,0,0,1,0,3Z" fill="#33363a"/>
        </g>
      </g>
    </g>
    <g id="Grupo_109" data-name="Grupo 109">
      <g id="Grupo_91" data-name="Grupo 91">
        <path id="Trazado_57" data-name="Trazado 57" d="M85.791,85.41a21.257,21.257,0,1,1-42.514,0c0-11.74,9.516-33.32,21.256-33.32S85.791,73.67,85.791,85.41Z" fill="#fffffa"/>
      </g>
      <g id="Grupo_92" data-name="Grupo 92">
        <path id="Trazado_58" data-name="Trazado 58" d="M64.533,52.09v54.578A21.259,21.259,0,0,0,85.791,85.41C85.791,73.67,76.273,52.09,64.533,52.09Z" fill="#f9f9e4"/>
      </g>
      <g id="Grupo_95" data-name="Grupo 95">
        <g id="Grupo_93" data-name="Grupo 93">
          <path id="Trazado_59" data-name="Trazado 59" d="M51.361,97.47c1.961,2.144,4.121,3.194,2.973,4.244s-3.67.165-5.631-1.979S46.084,95,47.232,93.95,49.4,95.324,51.361,97.47Z" fill="#7bc67b"/>
        </g>
        <g id="Grupo_94" data-name="Grupo 94">
          <path id="Trazado_60" data-name="Trazado 60" d="M77.705,97.47c-1.961,2.144-4.121,3.194-2.973,4.244s3.67.165,5.631-1.979S82.984,95,81.834,93.95,79.666,95.324,77.705,97.47Z" fill="#54af79"/>
        </g>
      </g>
      <g id="Grupo_96" data-name="Grupo 96">
        <path id="Trazado_61" data-name="Trazado 61" d="M64.533,108.168A22.782,22.782,0,0,1,41.777,85.41c0-11.919,9.609-34.82,22.756-34.82s22.758,22.9,22.758,34.82A22.784,22.784,0,0,1,64.533,108.168Zm0-54.578c-10.812,0-19.756,21.068-19.756,31.82a19.757,19.757,0,1,0,39.514,0C84.291,74.658,75.346,53.59,64.533,53.59Z" fill="#33363a"/>
      </g>
      <g id="Grupo_97" data-name="Grupo 97">
        <path id="Trazado_62" data-name="Trazado 62" d="M77.02,90.914C74.254,96.9,68.6,100.187,64.4,98.248s-2.25-5.468.516-11.459,5.3-12.176,9.5-10.234S79.783,84.922,77.02,90.914Z" fill="#7bc67b"/>
      </g>
      <g id="Grupo_98" data-name="Grupo 98">
        <path id="Trazado_63" data-name="Trazado 63" d="M74.418,76.555c-4.2-1.941-6.734,4.244-9.5,10.234-.131.283-.258.559-.385.829V98.3c4.188,1.814,9.748-1.46,12.486-7.389C79.783,84.922,78.619,78.494,74.418,76.555Z" fill="#54af79"/>
      </g>
      <g id="Grupo_99" data-name="Grupo 99">
        <circle id="Elipse_9" data-name="Elipse 9" cx="1.351" cy="1.351" r="1.351" transform="translate(50.959 67.088)" fill="#7bc67b"/>
      </g>
      <g id="Grupo_100" data-name="Grupo 100">
        <circle id="Elipse_10" data-name="Elipse 10" cx="0.529" cy="0.529" r="0.529" transform="translate(56.655 61.451)" fill="#7bc67b"/>
      </g>
      <g id="Grupo_101" data-name="Grupo 101">
        <circle id="Elipse_11" data-name="Elipse 11" cx="0.764" cy="0.764" r="0.764" transform="translate(53.66 75.427)" fill="#7bc67b"/>
      </g>
      <g id="Grupo_102" data-name="Grupo 102">
        <circle id="Elipse_12" data-name="Elipse 12" cx="0.764" cy="0.764" r="0.764" transform="translate(65.56 100.629)" fill="#54af79"/>
      </g>
      <g id="Grupo_103" data-name="Grupo 103">
        <circle id="Elipse_13" data-name="Elipse 13" cx="0.764" cy="0.764" r="0.764" transform="translate(61.968 99.865)" fill="#7bc67b"/>
      </g>
      <g id="Grupo_104" data-name="Grupo 104">
        <circle id="Elipse_14" data-name="Elipse 14" cx="1.562" cy="1.562" r="1.562" transform="translate(72.039 63.096)" fill="#54af79"/>
      </g>
      <g id="Grupo_105" data-name="Grupo 105">
        <circle id="Elipse_15" data-name="Elipse 15" cx="1.527" cy="1.527" r="1.527" transform="translate(76.502 69.789)" fill="#54af79"/>
      </g>
      <g id="Grupo_106" data-name="Grupo 106">
        <circle id="Elipse_16" data-name="Elipse 16" cx="1.526" cy="1.526" r="1.526" transform="translate(54.77 90.259)" fill="#7bc67b"/>
      </g>
      <g id="Grupo_107" data-name="Grupo 107">
        <path id="Trazado_64" data-name="Trazado 64" d="M66.178,69.387c0,3.578,1.543,6.479-2.035,6.479a6.48,6.48,0,1,1,0-12.959C67.721,62.906,66.178,65.809,66.178,69.387Z" fill="#7bc67b"/>
      </g>
      <g id="Grupo_108" data-name="Grupo 108">
        <path id="Trazado_65" data-name="Trazado 65" d="M64.533,75.852c3.068-.213,1.645-3.025,1.645-6.465s1.424-6.253-1.645-6.467Z" fill="#54af79"/>
      </g>
    </g>
  </g>
</svg>
