<svg xmlns="http://www.w3.org/2000/svg" width="74.238" height="127.5" viewBox="0 0 74.238 127.5">
  <g id="pokeicon" transform="translate(-26.631)">
    <g id="Grupo_51" data-name="Grupo 51">
      <path id="Trazado_26" data-name="Trazado 26" d="M99.369,121.93A4.07,4.07,0,0,1,95.3,126H32.2a4.07,4.07,0,0,1-4.07-4.07V5.57A4.07,4.07,0,0,1,32.2,1.5H95.3a4.07,4.07,0,0,1,4.07,4.07V121.93Z" fill="#fff"/>
    </g>
    <g id="Grupo_52" data-name="Grupo 52">
      <path id="Trazado_27" data-name="Trazado 27" d="M89.973,121.93c0,2.248-1.34,4.07-3,4.07H40.521c-1.652,0-2.994-1.822-2.994-4.07V5.57c0-2.248,1.342-4.07,2.994-4.07H86.976c1.656,0,3,1.822,3,4.07V121.93Z" fill="#bccad3"/>
    </g>
    <g id="Grupo_53" data-name="Grupo 53">
      <rect id="Rect치ngulo_25" data-name="Rect치ngulo 25" width="71.238" height="96.684" transform="translate(28.131 13.287)" fill="#0af"/>
    </g>
    <g id="Grupo_54" data-name="Grupo 54">
      <rect id="Rect치ngulo_26" data-name="Rect치ngulo 26" width="55.094" height="96.684" transform="translate(36.283 13.287)" fill="#0068ff"/>
    </g>
    <path id="Trazado_28" data-name="Trazado 28" d="M95.3,0H32.2a5.577,5.577,0,0,0-5.57,5.57V121.93a5.577,5.577,0,0,0,5.57,5.57H95.3a5.577,5.577,0,0,0,5.57-5.57V5.57A5.577,5.577,0,0,0,95.3,0ZM32.2,3H95.3a2.573,2.573,0,0,1,2.57,2.57v5.879H29.631V5.57A2.573,2.573,0,0,1,32.2,3ZM97.869,108.131H29.631V14.449H97.869ZM95.3,124.5H32.2a2.573,2.573,0,0,1-2.57-2.57v-10.8H97.869v10.8A2.573,2.573,0,0,1,95.3,124.5Z" fill="#33363a"/>
    <g id="Grupo_55" data-name="Grupo 55">
      <path id="Trazado_29" data-name="Trazado 29" d="M69.74,122.695H57.76a4.923,4.923,0,0,1,0-9.846H69.74a4.923,4.923,0,0,1,0,9.846ZM57.76,115.85a1.923,1.923,0,0,0,0,3.846H69.74a1.923,1.923,0,0,0,0-3.846Z" fill="#33363a"/>
    </g>
    <g id="Grupo_56" data-name="Grupo 56">
      <path id="Trazado_30" data-name="Trazado 30" d="M88.514,9.629a2.609,2.609,0,1,1,2.609-2.608A2.612,2.612,0,0,1,88.514,9.629Zm0-3a.391.391,0,1,0,.391.392A.392.392,0,0,0,88.514,6.629Z" fill="#33363a"/>
    </g>
    <g id="Grupo_57" data-name="Grupo 57">
      <path id="Trazado_31" data-name="Trazado 31" d="M70.789,8.773H56.711a1.5,1.5,0,0,1,0-3H70.789a1.5,1.5,0,1,1,0,3Z" fill="#33363a"/>
    </g>
    <g id="Grupo_58" data-name="Grupo 58">
      <path id="Trazado_32" data-name="Trazado 32" d="M88.8,61.626A25.051,25.051,0,1,1,63.75,36.577,25.053,25.053,0,0,1,88.8,61.626Z" fill="#ff8f8f"/>
    </g>
    <g id="Grupo_59" data-name="Grupo 59">
      <path id="Trazado_33" data-name="Trazado 33" d="M88.8,61.626c0,10.6-11.217,19.19-25.051,19.19S38.7,72.224,38.7,61.626,49.914,42.44,63.75,42.44,88.8,51.032,88.8,61.626Z" fill="#ff1a1a"/>
    </g>
    <g id="Grupo_60" data-name="Grupo 60">
      <path id="Trazado_34" data-name="Trazado 34" d="M38.7,61.626a25.051,25.051,0,1,0,50.1,0Z" fill="#fff"/>
    </g>
    <g id="Grupo_61" data-name="Grupo 61">
      <path id="Trazado_35" data-name="Trazado 35" d="M63.75,80.816c13.834,0,25.051-8.592,25.051-19.19H38.7C38.7,72.225,49.914,80.816,63.75,80.816Z" fill="#d8e5ea"/>
    </g>
    <path id="Trazado_36" data-name="Trazado 36" d="M63.75,35.077A26.552,26.552,0,1,0,90.3,61.626,26.58,26.58,0,0,0,63.75,35.077Zm0,3a23.577,23.577,0,0,1,23.5,22.049h-47A23.577,23.577,0,0,1,63.75,38.077Zm0,47.1a23.579,23.579,0,0,1-23.5-22.054h47A23.579,23.579,0,0,1,63.75,85.18Z" fill="#33363a"/>
    <g id="Grupo_66" data-name="Grupo 66">
      <g id="Grupo_62" data-name="Grupo 62">
        <path id="Trazado_37" data-name="Trazado 37" d="M69.605,58.64a8.283,8.283,0,1,1-11.713,0A8.282,8.282,0,0,1,69.605,58.64Z" fill="#a7bbc1"/>
      </g>
      <g id="Grupo_63" data-name="Grupo 63">
        <path id="Trazado_38" data-name="Trazado 38" d="M69.605,55.825a8.283,8.283,0,1,1-11.713,0A8.282,8.282,0,0,1,69.605,55.825Z" fill="#fff"/>
      </g>
      <g id="Grupo_64" data-name="Grupo 64">
        <path id="Trazado_39" data-name="Trazado 39" d="M57.893,67.54A8.283,8.283,0,0,1,69.606,55.825" fill="#d8e5ea"/>
      </g>
      <g id="Grupo_65" data-name="Grupo 65">
        <path id="Trazado_40" data-name="Trazado 40" d="M63.75,71.458a9.78,9.78,0,1,1,6.916-16.694h0A9.777,9.777,0,0,1,63.75,71.458Zm0-16.56a6.787,6.787,0,1,0,4.795,1.989h0A6.731,6.731,0,0,0,63.75,54.9Z" fill="#33363a"/>
      </g>
    </g>
  </g>
</svg>
