<svg width="110" height="30" viewBox="0 0 110 30" fill="none" xmlns="http://www.w3.org/2000/svg">
<path d="M95 0H15C6.71573 0 0 6.71573 0 15C0 23.2843 6.71573 30 15 30H95C103.284 30 110 23.2843 110 15C110 6.71573 103.284 0 95 0Z" fill="#F8A54F"/>
<path d="M56.59 9.08C57.84 9.08 58.81 9.39 59.5 10.01C60.2 10.63 60.55 11.49 60.55 12.59C60.55 13.02 60.485 13.45 60.355 13.88C60.225 14.31 60.01 14.7 59.71 15.05C59.42 15.4 59.04 15.68 58.57 15.89C58.1 16.1 57.52 16.205 56.83 16.205H55.255V20H53.5V9.08H56.59ZM56.83 14.525C57.34 14.525 57.74 14.415 58.03 14.195C58.32 13.975 58.52 13.715 58.63 13.415C58.75 13.115 58.81 12.85 58.81 12.62C58.81 12.39 58.755 12.13 58.645 11.84C58.545 11.54 58.355 11.285 58.075 11.075C57.795 10.865 57.395 10.76 56.875 10.76H55.255V14.525H56.83ZM62.8499 23.045L64.3349 19.745L61.3949 13.655H63.2849L65.1749 17.855L67.0649 13.655H68.5949L64.4999 23.045H62.8499ZM71.4864 13.655L71.6064 15.125C71.7864 14.765 72.0314 14.455 72.3414 14.195C72.6514 13.925 72.9664 13.72 73.2864 13.58C73.6164 13.44 73.8864 13.37 74.0964 13.37L74.0214 15.05C73.5414 15.01 73.1214 15.095 72.7614 15.305C72.4114 15.515 72.1364 15.8 71.9364 16.16C71.7464 16.51 71.6514 16.88 71.6514 17.27V20H69.9714V13.655H71.4864ZM75.0128 16.76C75.0128 16.12 75.1628 15.545 75.4628 15.035C75.7728 14.525 76.1928 14.12 76.7228 13.82C77.2628 13.52 77.8828 13.37 78.5828 13.37C79.2928 13.37 79.9078 13.52 80.4278 13.82C80.9578 14.12 81.3678 14.525 81.6578 15.035C81.9478 15.545 82.0928 16.12 82.0928 16.76C82.0928 17.4 81.9478 17.98 81.6578 18.5C81.3678 19.01 80.9578 19.415 80.4278 19.715C79.8978 20.015 79.2778 20.165 78.5678 20.165C77.8778 20.165 77.2628 20.03 76.7228 19.76C76.1928 19.48 75.7728 19.085 75.4628 18.575C75.1628 18.065 75.0128 17.46 75.0128 16.76ZM76.7078 16.775C76.7078 17.155 76.7878 17.5 76.9478 17.81C77.1078 18.11 77.3228 18.35 77.5928 18.53C77.8728 18.7 78.1878 18.785 78.5378 18.785C79.0878 18.785 79.5328 18.595 79.8728 18.215C80.2128 17.825 80.3828 17.345 80.3828 16.775C80.3828 16.205 80.2128 15.725 79.8728 15.335C79.5328 14.945 79.0878 14.75 78.5378 14.75C78.1878 14.75 77.8728 14.845 77.5928 15.035C77.3228 15.215 77.1078 15.46 76.9478 15.77C76.7878 16.07 76.7078 16.405 76.7078 16.775Z" fill="white"/>
<path d="M32.1607 22.824C30.7677 22.834 29.4357 22.256 28.4907 21.224C27.9221 20.6344 27.4973 19.9215 27.2494 19.1407C27.0015 18.36 26.9373 17.5326 27.0617 16.723C27.1647 15.923 27.3997 15.146 27.7557 14.423C27.6957 14.6777 27.6642 14.9383 27.6617 15.2C27.6667 15.46 27.7457 15.714 27.8877 15.932C27.8897 15.924 27.8937 15.915 27.8977 15.908C28.2209 15.2092 28.6193 14.5476 29.0857 13.935C29.5857 13.421 30.1407 12.962 30.7387 12.565C31.0987 12.332 31.4327 12.065 31.7387 11.765C32.9147 10.448 32.2027 8.025 32.1947 8C32.9993 8.73831 33.5935 9.67692 33.9167 10.72C34.019 11.3314 34.0085 11.9564 33.8857 12.564C33.7857 13.214 33.7177 13.764 33.9677 14.064C34.0403 14.136 34.1278 14.1912 34.224 14.2258C34.3203 14.2603 34.4229 14.2734 34.5247 14.264H34.6117C34.7413 14.2688 34.8698 14.239 34.984 14.1777C35.0983 14.1163 35.1941 14.0257 35.2617 13.915C35.6337 13.239 34.8217 11.782 34.8117 11.767C35.4577 12.137 36.0387 12.587 36.5517 13.107C37.0657 13.5891 37.4694 14.1765 37.7352 14.8291C38.001 15.4817 38.1226 16.184 38.0917 16.888C38.0336 17.5475 37.8189 18.1837 37.4655 18.7436C37.1121 19.3034 36.6301 19.7709 36.0597 20.107C35.4937 20.464 34.8727 20.727 34.2227 20.884C34.7031 20.496 35.0871 20.0022 35.3447 19.441C35.4142 18.7563 35.3562 18.0646 35.1737 17.401C35.0643 17.9525 34.8401 18.4748 34.5157 18.934C34.1577 19.317 33.6697 19.554 33.1477 19.598C33.3971 19.4796 33.6078 19.293 33.7555 19.0597C33.9031 18.8264 33.9815 18.5561 33.9817 18.28C33.9617 17.48 33.2987 16.825 32.4877 16.825C31.6767 16.825 31.0147 17.471 30.9947 18.28C30.9947 18.495 31.0417 18.707 31.1347 18.9C30.8147 18.625 30.6027 18.245 30.5347 17.83C30.5297 17.853 29.9847 20.23 31.5467 21.347C32.1867 21.744 32.9337 21.934 33.6867 21.892C34.5517 21.875 35.4117 21.742 36.2427 21.502C35.0279 22.3052 33.616 22.7597 32.1607 22.816V22.824Z" fill="white"/>
</svg>
