<svg width="110" height="30" viewBox="0 0 110 30" fill="none" xmlns="http://www.w3.org/2000/svg">
<path d="M95 0H15C6.71573 0 0 6.71573 0 15C0 23.2843 6.71573 30 15 30H95C103.284 30 110 23.2843 110 15C110 6.71573 103.284 0 95 0Z" fill="#EDD53F"/>
<path d="M48.23 10.3C47.84 10.1 47.425 9.93 46.985 9.79C46.555 9.64 46.135 9.565 45.725 9.565C45.185 9.565 44.755 9.685 44.435 9.925C44.125 10.155 43.97 10.485 43.97 10.915C43.97 11.215 44.08 11.48 44.3 11.71C44.52 11.93 44.8 12.125 45.14 12.295C45.48 12.465 45.84 12.62 46.22 12.76C46.66 12.92 47.085 13.12 47.495 13.36C47.915 13.6 48.26 13.93 48.53 14.35C48.8 14.76 48.935 15.31 48.935 16C48.935 16.57 48.79 17.095 48.5 17.575C48.21 18.045 47.795 18.42 47.255 18.7C46.715 18.98 46.06 19.12 45.29 19.12C44.61 19.12 43.95 19.015 43.31 18.805C42.68 18.585 42.12 18.305 41.63 17.965L42.41 16.6C42.77 16.87 43.2 17.1 43.7 17.29C44.21 17.48 44.685 17.575 45.125 17.575C45.435 17.575 45.74 17.525 46.04 17.425C46.35 17.325 46.605 17.16 46.805 16.93C47.015 16.7 47.12 16.395 47.12 16.015C47.12 15.705 47.03 15.44 46.85 15.22C46.67 15 46.435 14.81 46.145 14.65C45.865 14.48 45.555 14.33 45.215 14.2C44.875 14.07 44.525 13.925 44.165 13.765C43.815 13.605 43.49 13.41 43.19 13.18C42.89 12.94 42.645 12.65 42.455 12.31C42.265 11.97 42.17 11.55 42.17 11.05C42.17 10.45 42.31 9.93 42.59 9.49C42.87 9.04 43.255 8.69 43.745 8.44C44.245 8.19 44.82 8.05 45.47 8.02C46.24 8.02 46.895 8.115 47.435 8.305C47.985 8.485 48.47 8.705 48.89 8.965L48.23 10.3ZM54.7405 19.165C54.3205 19.165 53.9105 19.08 53.5105 18.91C53.1205 18.74 52.8055 18.5 52.5655 18.19V22.045H50.8855V12.535H52.3405L52.4905 13.48C52.8005 13.16 53.1705 12.895 53.6005 12.685C54.0305 12.475 54.5155 12.37 55.0555 12.37C55.6555 12.37 56.1905 12.51 56.6605 12.79C57.1305 13.07 57.5005 13.47 57.7705 13.99C58.0505 14.5 58.1905 15.105 58.1905 15.805C58.1905 16.505 58.0405 17.105 57.7405 17.605C57.4405 18.105 57.0305 18.49 56.5105 18.76C55.9905 19.03 55.4005 19.165 54.7405 19.165ZM54.4105 17.83C54.7805 17.83 55.1205 17.745 55.4305 17.575C55.7505 17.405 56.0055 17.17 56.1955 16.87C56.3855 16.56 56.4805 16.215 56.4805 15.835C56.4805 15.435 56.3905 15.08 56.2105 14.77C56.0405 14.46 55.8055 14.22 55.5055 14.05C55.2155 13.88 54.8905 13.795 54.5305 13.795C54.0305 13.795 53.6105 13.92 53.2705 14.17C52.9405 14.41 52.7055 14.74 52.5655 15.16V16.435C52.6555 16.845 52.8705 17.18 53.2105 17.44C53.5505 17.7 53.9505 17.83 54.4105 17.83ZM62.6375 19.165C62.0375 19.165 61.4975 19.04 61.0175 18.79C60.5375 18.54 60.1525 18.17 59.8625 17.68C59.5825 17.19 59.4425 16.575 59.4425 15.835C59.4425 15.115 59.5875 14.5 59.8775 13.99C60.1775 13.47 60.5675 13.07 61.0475 12.79C61.5375 12.51 62.0675 12.37 62.6375 12.37C63.2275 12.37 63.7025 12.485 64.0625 12.715C64.4325 12.935 64.7275 13.2 64.9475 13.51L65.0675 12.655H66.6125V19H64.9325V18.07C64.8225 18.2 64.6625 18.35 64.4525 18.52C64.2425 18.69 63.9825 18.84 63.6725 18.97C63.3725 19.1 63.0275 19.165 62.6375 19.165ZM63.1025 17.785C63.5525 17.785 63.9375 17.665 64.2575 17.425C64.5775 17.185 64.8025 16.855 64.9325 16.435V15.055C64.8125 14.665 64.5825 14.35 64.2425 14.11C63.9025 13.87 63.5025 13.75 63.0425 13.75C62.6925 13.75 62.3725 13.835 62.0825 14.005C61.8025 14.165 61.5725 14.4 61.3925 14.71C61.2225 15.01 61.1375 15.355 61.1375 15.745C61.1375 16.125 61.2275 16.47 61.4075 16.78C61.5875 17.09 61.8225 17.335 62.1125 17.515C62.4125 17.695 62.7425 17.785 63.1025 17.785ZM70.4473 12.655L70.5673 14.125C70.7473 13.765 70.9923 13.455 71.3023 13.195C71.6123 12.925 71.9273 12.72 72.2473 12.58C72.5773 12.44 72.8473 12.37 73.0573 12.37L72.9823 14.05C72.5023 14.01 72.0823 14.095 71.7223 14.305C71.3723 14.515 71.0973 14.8 70.8973 15.16C70.7073 15.51 70.6123 15.88 70.6123 16.27V19H68.9323V12.655H70.4473ZM74.7771 19V7.3H76.4571V14.95L79.6371 12.505L80.6571 13.405L78.3471 15.205L80.9271 19H78.9771L77.1771 16.12L76.4571 16.69V19H74.7771ZM83.0657 22.045L84.5507 18.745L81.6107 12.655H83.5007L85.3907 16.855L87.2807 12.655H88.8107L84.7157 22.045H83.0657Z" fill="white"/>
<path d="M21.518 8.584C21.4951 8.51769 21.4883 8.44685 21.4983 8.3774C21.5083 8.30794 21.5347 8.24187 21.5754 8.18472C21.6162 8.12757 21.6699 8.08098 21.7323 8.04884C21.7947 8.01671 21.8639 7.99996 21.934 8H26.641C26.735 8.00008 26.8264 8.03021 26.902 8.08599C26.9776 8.14177 27.0333 8.22027 27.061 8.31L29.379 15.81C29.3994 15.8758 29.404 15.9455 29.3925 16.0134C29.381 16.0813 29.3538 16.1456 29.3129 16.201C29.2721 16.2565 29.2187 16.3015 29.1573 16.3326C29.0958 16.3637 29.0279 16.3799 28.959 16.38H26.077C26.043 16.3799 26.0094 16.3878 25.9789 16.4029C25.9484 16.4181 25.9219 16.4401 25.9013 16.4672C25.8808 16.4943 25.8668 16.5259 25.8605 16.5593C25.8542 16.5928 25.8558 16.6272 25.865 16.66L27.308 21.74C27.3363 21.8389 27.329 21.9445 27.2875 22.0386C27.246 22.1327 27.1728 22.2092 27.0807 22.255C26.9886 22.3007 26.8834 22.3128 26.7834 22.289C26.6833 22.2653 26.5948 22.2073 26.533 22.125L20.085 13.545C20.0372 13.4796 20.0083 13.4023 20.0015 13.3215C19.9948 13.2408 20.0105 13.1597 20.0469 13.0873C20.0833 13.0149 20.139 12.954 20.2078 12.9112C20.2767 12.8685 20.356 12.8455 20.437 12.845H22.679C22.7141 12.845 22.7487 12.8366 22.7799 12.8206C22.8111 12.8045 22.838 12.7812 22.8583 12.7526C22.8787 12.7241 22.8919 12.691 22.8969 12.6563C22.9019 12.6216 22.8985 12.5862 22.887 12.553L21.518 8.584Z" fill="white"/>
</svg>
