<svg width="110" height="30" viewBox="0 0 110 30" fill="none" xmlns="http://www.w3.org/2000/svg">
<path d="M95 0H15C6.71573 0 0 6.71573 0 15C0 23.2843 6.71573 30 15 30H95C103.284 30 110 23.2843 110 15C110 6.71573 103.284 0 95 0Z" fill="#559EDF"/>
<path d="M45.575 10.08C46.385 10.08 47.09 10.22 47.69 10.5C48.3 10.77 48.77 11.17 49.1 11.7C49.44 12.22 49.61 12.85 49.61 13.59C49.61 14.21 49.475 14.815 49.205 15.405C48.935 15.995 48.48 16.455 47.84 16.785L50.495 21H48.47L46.01 17.205C45.95 17.205 45.89 17.205 45.83 17.205H44.255V21H42.5V10.08H45.575ZM45.815 15.525C46.335 15.525 46.74 15.425 47.03 15.225C47.32 15.015 47.52 14.765 47.63 14.475C47.75 14.175 47.81 13.9 47.81 13.65C47.81 13.41 47.755 13.145 47.645 12.855C47.535 12.555 47.34 12.3 47.06 12.09C46.78 11.87 46.385 11.76 45.875 11.76H44.255V15.525H45.815ZM54.8738 21.165C54.2738 21.165 53.7338 21.04 53.2538 20.79C52.7738 20.54 52.3888 20.17 52.0988 19.68C51.8188 19.19 51.6788 18.575 51.6788 17.835C51.6788 17.115 51.8238 16.5 52.1138 15.99C52.4138 15.47 52.8038 15.07 53.2838 14.79C53.7738 14.51 54.3038 14.37 54.8738 14.37C55.4638 14.37 55.9388 14.485 56.2988 14.715C56.6688 14.935 56.9638 15.2 57.1838 15.51L57.3038 14.655H58.8488V21H57.1688V20.07C57.0588 20.2 56.8988 20.35 56.6888 20.52C56.4788 20.69 56.2188 20.84 55.9088 20.97C55.6088 21.1 55.2638 21.165 54.8738 21.165ZM55.3388 19.785C55.7888 19.785 56.1738 19.665 56.4938 19.425C56.8138 19.185 57.0388 18.855 57.1688 18.435V17.055C57.0488 16.665 56.8188 16.35 56.4788 16.11C56.1388 15.87 55.7388 15.75 55.2788 15.75C54.9288 15.75 54.6088 15.835 54.3188 16.005C54.0388 16.165 53.8088 16.4 53.6288 16.71C53.4588 17.01 53.3738 17.355 53.3738 17.745C53.3738 18.125 53.4638 18.47 53.6438 18.78C53.8238 19.09 54.0588 19.335 54.3488 19.515C54.6488 19.695 54.9788 19.785 55.3388 19.785ZM61.1687 14.655H62.8487V21H61.1687V14.655ZM61.0937 12.39C61.0937 12.13 61.1937 11.915 61.3937 11.745C61.6037 11.575 61.8287 11.49 62.0687 11.49C62.2987 11.49 62.5137 11.575 62.7137 11.745C62.9137 11.915 63.0137 12.13 63.0137 12.39C63.0137 12.65 62.9137 12.865 62.7137 13.035C62.5137 13.195 62.2987 13.275 62.0687 13.275C61.8287 13.275 61.6037 13.195 61.3937 13.035C61.1937 12.865 61.0937 12.65 61.0937 12.39ZM66.668 14.655L66.788 15.795C67.008 15.365 67.333 15.025 67.763 14.775C68.193 14.515 68.703 14.385 69.293 14.385C69.883 14.385 70.373 14.565 70.763 14.925C71.163 15.275 71.368 15.73 71.378 16.29V21H69.698V16.89C69.678 16.57 69.583 16.315 69.413 16.125C69.253 15.925 68.988 15.82 68.618 15.81C68.098 15.81 67.668 16.035 67.328 16.485C66.998 16.925 66.833 17.49 66.833 18.18V21H65.153V14.655H66.668ZM76.7231 21.165C75.9731 21.165 75.3331 21.02 74.8031 20.73C74.2731 20.44 73.8681 20.04 73.5881 19.53C73.3081 19.01 73.1681 18.425 73.1681 17.775C73.1681 17.145 73.3281 16.575 73.6481 16.065C73.9681 15.545 74.3981 15.135 74.9381 14.835C75.4781 14.525 76.0831 14.37 76.7531 14.37C77.6231 14.37 78.3381 14.625 78.8981 15.135C79.4681 15.635 79.8481 16.345 80.0381 17.265L75.1631 18.915C75.5231 19.455 76.0531 19.725 76.7531 19.725C77.0131 19.725 77.2581 19.68 77.4881 19.59C77.7281 19.5 77.9581 19.38 78.1781 19.23L78.9431 20.475C78.6031 20.685 78.2381 20.855 77.8481 20.985C77.4581 21.105 77.0831 21.165 76.7231 21.165ZM74.8181 17.685C74.8181 17.765 74.8231 17.85 74.8331 17.94L78.1631 16.755C78.0431 16.475 77.8631 16.23 77.6231 16.02C77.3831 15.8 77.0481 15.69 76.6181 15.69C76.0881 15.69 75.6531 15.875 75.3131 16.245C74.9831 16.615 74.8181 17.095 74.8181 17.685ZM83.2061 14.655L83.3261 16.125C83.5061 15.765 83.7511 15.455 84.0611 15.195C84.3711 14.925 84.6861 14.72 85.0061 14.58C85.3361 14.44 85.6061 14.37 85.8161 14.37L85.7411 16.05C85.2611 16.01 84.8411 16.095 84.4811 16.305C84.1311 16.515 83.8561 16.8 83.6561 17.16C83.4661 17.51 83.3711 17.88 83.3711 18.27V21H81.6911V14.655H83.2061Z" fill="white"/>
<path d="M27 22.7641C25.677 22.7641 24.408 22.2398 23.4708 21.306C22.5336 20.3722 22.0048 19.105 22 17.7821L26.55 8.28206C26.5909 8.19752 26.6549 8.12623 26.7345 8.07634C26.814 8.02646 26.9061 8 27 8C27.0939 8 27.186 8.02646 27.2655 8.07634C27.3451 8.12623 27.4091 8.19752 27.45 8.28206L32 17.7821C31.9952 19.105 31.4664 20.3722 30.5292 21.306C29.592 22.2398 28.323 22.7641 27 22.7641ZM24.064 17.8021C24.064 17.8301 23.658 20.6181 26.164 21.1671C26.4595 21.2326 26.7613 21.2662 27.064 21.2671C27.6528 21.2568 28.2325 21.1199 28.7637 20.8655C29.2948 20.6112 29.7649 20.2454 30.142 19.7931H30.132C29.365 20.0701 28.558 20.2201 27.732 20.2351C27.288 20.2401 26.845 20.1751 26.422 20.0431C25.369 19.6371 24.518 18.8331 24.055 17.8031L24.064 17.8021Z" fill="white"/>
</svg>
