<svg id="flecha-hacia-arriba_1_" data-name="flecha-hacia-arriba (1)" xmlns="http://www.w3.org/2000/svg" width="122.617" height="127.723" viewBox="0 0 122.617 127.723">
  <g id="Grupo_489" data-name="Grupo 489" transform="translate(-2.553)">
    <g id="Grupo_485" data-name="Grupo 485">
      <g id="Grupo_480" data-name="Grupo 480">
        <path id="Trazado_292" data-name="Trazado 292" d="M9.58,47.725,50.494,6.817c7.1-7.1,19.661-7.084,26.748,0l40.9,40.906A18.912,18.912,0,1,1,91.4,74.471L82.78,65.85v41.461a18.911,18.911,0,1,1-37.822,0V65.842l-8.634,8.633A18.913,18.913,0,0,1,9.58,47.725Z" fill="#fff"/>
      </g>
      <g id="Grupo_481" data-name="Grupo 481">
        <path id="Trazado_293" data-name="Trazado 293" d="M63.623,1.512A18.9,18.9,0,0,1,77.241,6.821l40.9,40.906A18.912,18.912,0,1,1,91.4,74.471L82.779,65.85v41.461a18.913,18.913,0,0,1-18.913,18.912c-.082,0-.161-.012-.243-.012V1.512Z" fill="#e9f1f4"/>
      </g>
      <g id="Grupo_482" data-name="Grupo 482">
        <path id="Trazado_294" data-name="Trazado 294" d="M36.323,74.475a18.861,18.861,0,0,1-22.792,3L50.494,40.516c7.1-7.092,19.661-7.084,26.748.006l36.949,36.953a18.9,18.9,0,0,1-22.794-3L82.78,65.85v41.461a18.911,18.911,0,1,1-37.822,0V65.842Z" fill="#d8e5ea"/>
      </g>
      <g id="Grupo_483" data-name="Grupo 483">
        <path id="Trazado_295" data-name="Trazado 295" d="M63.861,35.2v91.021a18.908,18.908,0,0,1-18.9-18.912V65.842l-8.634,8.633a18.861,18.861,0,0,1-22.792,3L50.494,40.516A18.878,18.878,0,0,1,63.861,35.2Z" fill="#e9f1f4"/>
      </g>
      <g id="Grupo_484" data-name="Grupo 484">
        <path id="Trazado_296" data-name="Trazado 296" d="M63.866,127.723a20.434,20.434,0,0,1-20.409-20.412V69.463l-6.074,6.072A20.413,20.413,0,0,1,8.518,46.664h0L49.433,5.756A20.458,20.458,0,0,1,63.863,0h.009A20.467,20.467,0,0,1,78.3,5.76l40.9,40.906A20.412,20.412,0,1,1,90.336,75.531l-6.057-6.06V107.31A20.436,20.436,0,0,1,63.866,127.723ZM44.957,64.342a1.5,1.5,0,0,1,1.5,1.5v41.469a17.411,17.411,0,1,0,34.822,0V65.85a1.5,1.5,0,0,1,2.561-1.061l8.617,8.621a17.412,17.412,0,1,0,24.626-24.623L76.181,7.881A17.452,17.452,0,0,0,63.87,3h-.007A17.439,17.439,0,0,0,51.554,7.877L10.641,48.786h0A17.413,17.413,0,0,0,35.263,73.414L43.9,64.782A1.5,1.5,0,0,1,44.957,64.342Z" fill="#33363a"/>
      </g>
    </g>
    <g id="Grupo_488" data-name="Grupo 488">
      <g id="Grupo_486" data-name="Grupo 486">
        <path id="Trazado_297" data-name="Trazado 297" d="M82.886,67.35a1.5,1.5,0,0,1-1.061-.439l-9.1-9.089A1.5,1.5,0,0,1,74.852,55.7l9.1,9.09a1.5,1.5,0,0,1-1.061,2.56Z" fill="#33363a"/>
      </g>
      <g id="Grupo_487" data-name="Grupo 487">
        <path id="Trazado_298" data-name="Trazado 298" d="M44.835,67.35a1.5,1.5,0,0,1-1.061-2.56l9.093-9.09a1.5,1.5,0,0,1,2.122,2.122L45.9,66.911A1.5,1.5,0,0,1,44.835,67.35Z" fill="#33363a"/>
      </g>
    </g>
  </g>
  <g id="Grupo_499" data-name="Grupo 499" transform="translate(-2.553)">
    <g id="Grupo_490" data-name="Grupo 490">
      <path id="Trazado_299" data-name="Trazado 299" d="M81.285,51.059A17.424,17.424,0,1,1,63.86,33.637,17.425,17.425,0,0,1,81.285,51.059Z" fill="#ff8f8f"/>
    </g>
    <g id="Grupo_491" data-name="Grupo 491">
      <path id="Trazado_300" data-name="Trazado 300" d="M81.285,51.059c0,7.373-7.8,13.348-17.425,13.348S46.436,58.432,46.436,51.059s7.8-13.346,17.424-13.346S81.285,43.692,81.285,51.059Z" fill="#ff1a1a"/>
    </g>
    <g id="Grupo_492" data-name="Grupo 492">
      <path id="Trazado_301" data-name="Trazado 301" d="M46.436,51.059a17.425,17.425,0,1,0,34.849,0Z" fill="#fff"/>
    </g>
    <g id="Grupo_493" data-name="Grupo 493">
      <path id="Trazado_302" data-name="Trazado 302" d="M63.86,64.407c9.623,0,17.425-5.975,17.425-13.348H46.436C46.436,58.432,54.238,64.407,63.86,64.407Z" fill="#d8e5ea"/>
    </g>
    <path id="Trazado_303" data-name="Trazado 303" d="M63.86,32.137A18.924,18.924,0,1,0,82.785,51.059,18.944,18.944,0,0,0,63.86,32.137Zm0,3A15.942,15.942,0,0,1,79.709,49.559h-31.7A15.942,15.942,0,0,1,63.86,35.137Zm0,31.848A15.943,15.943,0,0,1,48.012,52.559h31.7A15.943,15.943,0,0,1,63.86,66.985Z" fill="#33363a"/>
    <g id="Grupo_498" data-name="Grupo 498">
      <g id="Grupo_494" data-name="Grupo 494">
        <circle id="Elipse_44" data-name="Elipse 44" cx="5.761" cy="5.761" r="5.761" transform="translate(58.099 47.295)" fill="#a7bbc1"/>
      </g>
      <g id="Grupo_495" data-name="Grupo 495">
        <circle id="Elipse_45" data-name="Elipse 45" cx="5.761" cy="5.761" r="5.761" transform="translate(58.099 45.337)" fill="#fff"/>
      </g>
      <g id="Grupo_496" data-name="Grupo 496">
        <path id="Trazado_304" data-name="Trazado 304" d="M59.787,55.172a5.761,5.761,0,1,1,8.147-8.148" fill="#d8e5ea"/>
      </g>
      <g id="Grupo_497" data-name="Grupo 497">
        <path id="Trazado_305" data-name="Trazado 305" d="M63.861,58.36a7.262,7.262,0,1,1,5.133-12.4h0a7.262,7.262,0,0,1-5.133,12.4Zm0-11.524a4.263,4.263,0,1,0,3.013,1.249h0A4.23,4.23,0,0,0,63.861,46.836Z" fill="#33363a"/>
      </g>
    </g>
  </g>
</svg>
