<svg id="Componente_10_1" data-name="Componente 10 – 1" xmlns="http://www.w3.org/2000/svg" width="150" height="150" viewBox="0 0 150 150">
  <rect id="Rectángulo_31" data-name="Rectángulo 31" width="150" height="150" rx="45" fill="#156471"/>
  <g id="Componente_9_1" data-name="Componente 9 – 1" transform="translate(3.576 4.402)">
    <g id="accion" transform="translate(3.986 4.598)">
      <g id="Grupo_245" data-name="Grupo 245" transform="translate(44.508 97.269)">
        <g id="Grupo_242" data-name="Grupo 242" transform="translate(1.5 1.5)">
          <path id="Trazado_148" data-name="Trazado 148" d="M46.008,114.236v0l19.544,11.281,19.541-11.281v0L65.552,102.955Z" transform="translate(-46.008 -102.955)" fill="#f93585"/>
        </g>
        <g id="Grupo_243" data-name="Grupo 243" transform="translate(21.044 1.5)">
          <path id="Trazado_149" data-name="Trazado 149" d="M65.552,125.519l19.541-11.281v0L65.552,102.955" transform="translate(-65.552 -102.955)" fill="#fc70b0"/>
        </g>
        <g id="Grupo_244" data-name="Grupo 244">
          <path id="Trazado_150" data-name="Trazado 150" d="M65.552,127.019a1.5,1.5,0,0,1-.75-.2L45.258,115.537a1.5,1.5,0,0,1,0-2.6L64.8,101.656a1.5,1.5,0,0,1,1.5,0l19.541,11.281a1.5,1.5,0,0,1,0,2.6L66.3,126.818A1.5,1.5,0,0,1,65.552,127.019ZM49.008,114.236l16.544,9.551,16.541-9.549-16.541-9.551Z" transform="translate(-44.508 -101.455)" fill="#33363a"/>
        </g>
      </g>
      <g id="Grupo_264" data-name="Grupo 264" transform="translate(21.155 0)">
        <g id="Grupo_246" data-name="Grupo 246" transform="translate(12.259 55.711)">
          <path id="Trazado_151" data-name="Trazado 151" d="M77.421,55.711a13.715,13.715,0,0,1-23.74,0H33.414a32.869,32.869,0,0,0,64.273,0Z" transform="translate(-33.414 -55.711)" fill="#fc70b0"/>
        </g>
        <g id="Grupo_247" data-name="Grupo 247" transform="translate(15.128 55.71)">
          <path id="Trazado_152" data-name="Trazado 152" d="M65.552,62.554A13.749,13.749,0,0,1,53.681,55.71h-17.4a32.85,32.85,0,0,0,58.535,0h-17.4A13.743,13.743,0,0,1,65.552,62.554Z" transform="translate(-36.283 -55.71)" fill="#f93585"/>
        </g>
        <g id="Grupo_248" data-name="Grupo 248" transform="translate(12.259 16.102)">
          <path id="Trazado_153" data-name="Trazado 153" d="M53.681,42.071a13.714,13.714,0,0,1,23.74,0H97.687a32.869,32.869,0,0,0-64.273,0Z" transform="translate(-33.414 -16.102)" fill="#fc70b0"/>
        </g>
        <g id="Grupo_249" data-name="Grupo 249" transform="translate(15.128 24.139)">
          <path id="Trazado_154" data-name="Trazado 154" d="M65.552,35.226a13.744,13.744,0,0,1,11.869,6.845h17.4a32.849,32.849,0,0,0-58.534,0h17.4A13.748,13.748,0,0,1,65.552,35.226Z" transform="translate(-36.283 -24.139)" fill="#f93585"/>
        </g>
        <g id="Grupo_253" data-name="Grupo 253" transform="translate(35.731 40.224)">
          <g id="Grupo_250" data-name="Grupo 250" transform="translate(1.5 1.501)">
            <circle id="Elipse_31" data-name="Elipse 31" cx="7.165" cy="7.165" r="7.165" fill="#f93585"/>
          </g>
          <g id="Grupo_251" data-name="Grupo 251" transform="translate(8.666 1.5)">
            <path id="Trazado_155" data-name="Trazado 155" d="M65.552,41.724a7.166,7.166,0,0,1,0,14.332" transform="translate(-65.552 -41.724)" fill="#fc70b0"/>
          </g>
          <g id="Grupo_252" data-name="Grupo 252">
            <path id="Trazado_156" data-name="Trazado 156" d="M65.552,57.556a8.666,8.666,0,1,1,8.664-8.666A8.676,8.676,0,0,1,65.552,57.556Zm0-14.332a5.666,5.666,0,1,0,5.664,5.666A5.673,5.673,0,0,0,65.552,43.224Z" transform="translate(-56.886 -40.224)" fill="#33363a"/>
          </g>
        </g>
        <g id="Grupo_262" data-name="Grupo 262" transform="translate(7.963 47.39)">
          <g id="Grupo_257" data-name="Grupo 257">
            <g id="Grupo_254" data-name="Grupo 254" transform="translate(11.142)">
              <path id="Trazado_157" data-name="Trazado 157" d="M51.884,50.39H41.76a1.5,1.5,0,0,1,0-3H51.884a1.5,1.5,0,0,1,0,3Z" transform="translate(-40.26 -47.39)" fill="#33363a"/>
            </g>
            <g id="Grupo_255" data-name="Grupo 255" transform="translate(5.311 0.02)">
              <path id="Trazado_158" data-name="Trazado 158" d="M35.929,50.39a1.5,1.5,0,0,1-1.5-1.5,1.519,1.519,0,0,1,.439-1.06,1.548,1.548,0,0,1,2.12,0,1.5,1.5,0,0,1-1.059,2.56Z" transform="translate(-34.429 -47.41)" fill="#33363a"/>
            </g>
            <g id="Grupo_256" data-name="Grupo 256" transform="translate(0 0.02)">
              <path id="Trazado_159" data-name="Trazado 159" d="M30.618,50.39a1.5,1.5,0,0,1-1.5-1.5,1.5,1.5,0,0,1,2.561-1.06,1.5,1.5,0,0,1,0,2.12A1.535,1.535,0,0,1,30.618,50.39Z" transform="translate(-29.118 -47.41)" fill="#33363a"/>
            </g>
          </g>
          <g id="Grupo_261" data-name="Grupo 261" transform="translate(48.6)">
            <g id="Grupo_258" data-name="Grupo 258">
              <path id="Trazado_160" data-name="Trazado 160" d="M89.341,50.39H79.218a1.5,1.5,0,0,1,0-3H89.341a1.5,1.5,0,0,1,0,3Z" transform="translate(-77.718 -47.39)" fill="#33363a"/>
            </g>
            <g id="Grupo_259" data-name="Grupo 259" transform="translate(15.951 0.02)">
              <path id="Trazado_161" data-name="Trazado 161" d="M95.169,50.39a1.5,1.5,0,0,1-1.061-2.56,1.548,1.548,0,0,1,2.12,0,1.5,1.5,0,0,1-1.059,2.56Z" transform="translate(-93.669 -47.41)" fill="#33363a"/>
            </g>
            <g id="Grupo_260" data-name="Grupo 260" transform="translate(21.271 0.02)">
              <path id="Trazado_162" data-name="Trazado 162" d="M100.489,50.39a1.5,1.5,0,0,1-1.06-2.56,1.548,1.548,0,0,1,2.12,0,1.5,1.5,0,0,1-1.06,2.56Z" transform="translate(-98.989 -47.41)" fill="#33363a"/>
            </g>
          </g>
        </g>
        <g id="Grupo_263" data-name="Grupo 263">
          <path id="Trazado_163" data-name="Trazado 163" d="M64.489,96.63a1.5,1.5,0,0,0-.439,1.06,1.5,1.5,0,0,0,1.5,1.5,1.5,1.5,0,0,0,1.06-2.56A1.549,1.549,0,0,0,64.489,96.63Z" transform="translate(-21.155 0)" fill="#33363a"/>
          <path id="Trazado_164" data-name="Trazado 164" d="M109.947,48.89a1.5,1.5,0,0,0-3,0A41.438,41.438,0,0,1,67.052,90.248v-7.1a34.557,34.557,0,0,0,32.1-27.12,1.5,1.5,0,0,0-1.467-1.814H77.421a1.5,1.5,0,0,0-1.295.744,12.216,12.216,0,0,1-21.15,0,1.5,1.5,0,0,0-1.295-.743H33.414a1.5,1.5,0,0,0-1.467,1.815,34.561,34.561,0,0,0,32.1,27.12v10.1a1.5,1.5,0,0,0,3,0A44.442,44.442,0,0,0,109.947,48.89ZM35.328,57.211H52.849a15.209,15.209,0,0,0,25.4,0h17.52a31.368,31.368,0,0,1-60.445,0Z" transform="translate(-21.155 0)" fill="#33363a"/>
          <path id="Trazado_165" data-name="Trazado 165" d="M64.052,7.532v7.1a34.559,34.559,0,0,0-32.1,27.121,1.5,1.5,0,0,0,1.467,1.815H53.682a1.5,1.5,0,0,0,1.295-.743,12.214,12.214,0,0,1,21.149,0,1.5,1.5,0,0,0,1.3.744H97.688a1.5,1.5,0,0,0,1.467-1.814,34.557,34.557,0,0,0-32.1-27.121V5.923A1.483,1.483,0,0,0,65.084,4.5,44.443,44.443,0,0,0,21.155,48.89a1.5,1.5,0,0,0,3,0A41.439,41.439,0,0,1,64.052,7.532ZM95.774,40.571H78.253a15.208,15.208,0,0,0-25.4,0H35.328a31.368,31.368,0,0,1,60.446,0Z" transform="translate(-21.155 0)" fill="#33363a"/>
          <path id="Trazado_166" data-name="Trazado 166" d="M65.549,2.98A1.5,1.5,0,0,0,66.609.42a1.548,1.548,0,0,0-2.12,0,1.519,1.519,0,0,0-.439,1.06,1.5,1.5,0,0,0,.439,1.06A1.516,1.516,0,0,0,65.549,2.98Z" transform="translate(-21.155 0)" fill="#33363a"/>
        </g>
      </g>
      <g id="Grupo_268" data-name="Grupo 268" transform="translate(12.266 89.962)">
        <g id="Grupo_266" data-name="Grupo 266" transform="matrix(-0.574, 0.819, -0.819, -0.574, 114.777, 23.261)">
          <path id="Trazado_168" data-name="Trazado 168" d="M12.668,2.053C11.8.826,9.316,0,6.488,0,2.912,0,0,1.336,0,2.976A2.105,2.105,0,0,0,1.105,4.641a.063.063,0,0,1,.012.009c.023.014.043.022.061.031l11.539,7.112V2.1A.218.218,0,0,1,12.668,2.053Z" transform="translate(0)" fill="#f93585"/>
        </g>
        <g id="Grupo_287" data-name="Grupo 287" transform="matrix(0.899, -0.438, 0.438, 0.899, 0, 5.575)">
          <path id="Trazado_168-2" data-name="Trazado 168" d="M12.668,2.053C11.8.826,9.316,0,6.488,0,2.912,0,0,1.336,0,2.976A2.105,2.105,0,0,0,1.105,4.641a.063.063,0,0,1,.012.009c.023.014.043.022.061.031l11.539,7.112V2.1A.218.218,0,0,1,12.668,2.053Z" fill="#f93585"/>
        </g>
      </g>
      <g id="Grupo_272" data-name="Grupo 272" transform="matrix(0.839, 0.545, -0.545, 0.839, 4.085, 43.64)">
        <g id="Grupo_270" data-name="Grupo 270" transform="translate(4.231 14.819) rotate(-115)">
          <path id="Trazado_171" data-name="Trazado 171" d="M9.15,2.579A5.622,5.622,0,0,0,4.477.01C1.874-.132-.132,1.263.007,3.118A3.118,3.118,0,0,0,.952,5.045a.049.049,0,0,1,.009.01c.019.016.033.027.047.037l9,8.5L9.19,2.637A.271.271,0,0,1,9.15,2.579Z" transform="translate(0 0)" fill="#f93585"/>
        </g>
      </g>
      <g id="Grupo_276" data-name="Grupo 276" transform="matrix(0.017, 1, -1, 0.017, 88.505, -4.598)">
        <g id="Grupo_274" data-name="Grupo 274" transform="translate(0 0)">
          <path id="Trazado_174" data-name="Trazado 174" d="M11.587,2.433C10.789.979,8.519,0,5.934,0,2.663,0,0,1.583,0,3.525A2.635,2.635,0,0,0,1.011,5.5a.043.043,0,0,1,.01.011.586.586,0,0,0,.056.037l10.554,8.424V2.491A.251.251,0,0,1,11.587,2.433Z" transform="translate(0)" fill="#f93585"/>
        </g>
      </g>
      <g id="Grupo_280" data-name="Grupo 280" transform="matrix(0.259, 0.966, -0.966, 0.259, 102.254, 83.734)">
        <g id="Grupo_278" data-name="Grupo 278" transform="translate(0 0)">
          <path id="Trazado_177" data-name="Trazado 177" d="M7.818,2.433A3.984,3.984,0,0,0,4,0,3.793,3.793,0,0,0,0,3.525,3.209,3.209,0,0,0,.682,5.5a.022.022,0,0,1,.008.011c.014.017.027.026.037.037l7.121,8.424V2.492A.272.272,0,0,1,7.818,2.433Z" fill="#f93585"/>
        </g>
      </g>
      <g id="Grupo_284" data-name="Grupo 284" transform="matrix(-0.174, 0.985, -0.985, -0.174, 25.835, 6.752)">
        <g id="Grupo_270-2" data-name="Grupo 270" transform="translate(3.702 16.353) rotate(-115)">
          <path id="Trazado_171-2" data-name="Trazado 171" d="M8.738,2.944A3.179,3.179,0,0,0,4.99.051C2.587.447.366,3.1.041,5.956A4.936,4.936,0,0,0,.454,8.734a.051.051,0,0,1,.006.014.429.429,0,0,0,.035.047L6.841,19.907,8.761,3.025A.33.33,0,0,1,8.738,2.944Z" transform="translate(0 0)" fill="#f93585"/>
        </g>
      </g>
      <g id="Grupo_285" data-name="Grupo 285" transform="matrix(-0.087, 0.996, -0.996, -0.087, 128.88, 21.1)">
        <g id="Grupo_270-3" data-name="Grupo 270" transform="translate(107.783 87.16) rotate(-115)">
          <path id="Trazado_171-3" data-name="Trazado 171" d="M8.906,2.439A5.476,5.476,0,0,0,4.359,0C1.825-.13-.131,1.2,0,2.971A2.933,2.933,0,0,0,.918,4.8a.047.047,0,0,1,.009.01c.018.015.032.026.046.035l8.752,8.083L8.945,2.494A.257.257,0,0,1,8.906,2.439Z" transform="translate(0.015 -0.001)" fill="#f93585"/>
        </g>
        <g id="Grupo_286" data-name="Grupo 286" transform="translate(0.012 4.598) rotate(-25)">
          <path id="Trazado_171-4" data-name="Trazado 171" d="M8.555,2.557A5.221,5.221,0,0,0,4.184.016C1.751-.128-.122,1.245.011,3.075A3.156,3.156,0,0,0,.9,4.976a.049.049,0,0,1,.008.01c.017.016.031.027.044.037l8.427,8.4L8.592,2.614A.269.269,0,0,1,8.555,2.557Z" transform="translate(0.604 0.015)" fill="#f93585"/>
        </g>
      </g>
    </g>
    <g id="Grupo_281" data-name="Grupo 281" transform="matrix(0.927, -0.375, 0.375, 0.927, -80.805, 87.164)">
      <g id="Grupo_278-2" data-name="Grupo 278">
        <path id="Trazado_177-2" data-name="Trazado 177" d="M108.417,28.553A3.984,3.984,0,0,0,104.6,26.12a3.793,3.793,0,0,0-4,3.525,3.209,3.209,0,0,0,.682,1.972.022.022,0,0,1,.008.011c.014.017.027.026.037.037l7.121,8.424V28.612A.272.272,0,0,1,108.417,28.553Z" fill="#f93585"/>
      </g>
    </g>
    <g id="Grupo_282" data-name="Grupo 282" transform="translate(95.054 181.549) rotate(-137)">
      <g id="Grupo_266-2" data-name="Grupo 266" transform="matrix(-0.574, 0.819, -0.819, -0.574, 239.453, 100.842)">
        <path id="Trazado_168-3" data-name="Trazado 168" d="M104.316,97.081c-.871-1.227-3.352-2.053-6.18-2.053-3.576,0-6.488,1.336-6.488,2.976a2.105,2.105,0,0,0,1.105,1.665.063.063,0,0,1,.012.009c.023.014.043.022.061.031l11.539,7.112v-9.69A.218.218,0,0,1,104.316,97.081Z" transform="translate(11.445 -5.746)" fill="#f93585"/>
      </g>
    </g>
    <g id="Grupo_283" data-name="Grupo 283" transform="translate(-19.5 136.204) rotate(-74)">
      <g id="Grupo_266-3" data-name="Grupo 266" transform="matrix(-0.574, 0.819, -0.819, -0.574, 111.141, 120.845)">
        <path id="Trazado_168-4" data-name="Trazado 168" d="M13.1,3.211C12.091,1.908,9.482.856,6.6.6,2.964.268.134,1.332.3,2.967A2.675,2.675,0,0,0,1.592,4.729a.084.084,0,0,1,.013.01c.025.016.046.026.065.037l12.46,8.151-.975-9.66A.29.29,0,0,1,13.1,3.211Z" transform="translate(2.717 -3.169)" fill="#f93585"/>
      </g>
    </g>
  </g>
</svg>
