<svg id="Type_Button" data-name="Type Button" xmlns="http://www.w3.org/2000/svg" width="150" height="150" viewBox="0 0 150 150">
  <g id="Rectángulo_32" data-name="Rectángulo 32" fill="#156471" stroke="#707070" stroke-width="1">
    <rect width="150" height="150" rx="45" stroke="none"/>
    <rect x="0.5" y="0.5" width="149" height="149" rx="44.5" fill="none"/>
  </g>
  <g id="Grupo_246" data-name="Grupo 246" transform="translate(3228 717)">
    <g id="Grupo_243" data-name="Grupo 243" transform="translate(603 -105)">
      <g id="puno" transform="translate(-3812 -540)">
        <g id="Grupo_110" data-name="Grupo 110" transform="translate(1.501 1.5)">
          <path id="Trazado_66" data-name="Trazado 66" d="M43.105,1.5H26.164A12.733,12.733,0,0,0,13.457,14.259v6.45l-2.738,2.75a6.554,6.554,0,0,0,0,9.241l5.751,5.776c.045.045.1.084.141.128a12.726,12.726,0,0,0,6.229,3.921,2.018,2.018,0,0,0-.293,1.039v9.414a2.031,2.031,0,0,0,2.027,2.035H45.728a2.031,2.031,0,0,0,2.027-2.035V43.562a2.027,2.027,0,0,0-.48-1.3,12.76,12.76,0,0,0,8.536-12.053V14.259A12.733,12.733,0,0,0,43.105,1.5Z" transform="translate(-8.813 -1.5)" fill="#ff1a1a"/>
        </g>
        <g id="Grupo_111" data-name="Grupo 111" transform="translate(2.501 4)">
          <path id="Trazado_67" data-name="Trazado 67" d="M44.137,13.156H27.012A13.076,13.076,0,0,0,14.168,26.45v6.72L11.4,36.034a6.813,6.813,0,0,0-1.418,2.193A6.8,6.8,0,0,0,11.4,40.419l5.813,6.018c.045.047.1.088.143.134a12.82,12.82,0,0,0,6.3,4.085,2.151,2.151,0,0,0-.3,1.082V55.8c.1.031.2.067.3.1a2.155,2.155,0,0,0-.3,1.083v4.564a2.086,2.086,0,0,0,2.049,2.12H46.788a2.086,2.086,0,0,0,2.049-2.12V56.982a2.15,2.15,0,0,0-.485-1.356c.165-.06.323-.131.485-.2V51.738a2.15,2.15,0,0,0-.485-1.356A13.273,13.273,0,0,0,56.98,37.825V26.45A13.076,13.076,0,0,0,44.137,13.156Z" transform="translate(-10.982 -11.156)" fill="#d60909"/>
        </g>
        <g id="Grupo_112" data-name="Grupo 112" transform="translate(25.626 40.689)">
          <path id="Trazado_68" data-name="Trazado 68" d="M73.406,97.25H70.587a1.5,1.5,0,0,1,0-3h2.819a1.5,1.5,0,0,1,0,3Z" transform="translate(-69.087 -94.25)" fill="#33363a"/>
        </g>
        <g id="Grupo_113" data-name="Grupo 113" transform="translate(21.505 40.689)">
          <path id="Trazado_69" data-name="Trazado 69" d="M63.474,97.25h-2.82a1.5,1.5,0,0,1,0-3h2.82a1.5,1.5,0,0,1,0,3Z" transform="translate(-59.154 -94.25)" fill="#33363a"/>
        </g>
        <g id="Grupo_114" data-name="Grupo 114" transform="translate(17.386 40.689)">
          <path id="Trazado_70" data-name="Trazado 70" d="M53.541,97.25H50.722a1.5,1.5,0,0,1,0-3h2.819a1.5,1.5,0,0,1,0,3Z" transform="translate(-49.222 -94.25)" fill="#33363a"/>
        </g>
        <path id="Trazado_74" data-name="Trazado 74" d="M43.488,0H25.946A13.84,13.84,0,0,0,12.121,13.823V20.2l-2.64,2.64a7.4,7.4,0,0,0,0,10.472l5.953,5.953c.038.039.079.075.12.11l.025.022a13.81,13.81,0,0,0,6.034,4,2.683,2.683,0,0,0-.079.643v9.706A2.769,2.769,0,0,0,24.3,56.51H46.2a2.769,2.769,0,0,0,2.767-2.766V44.038a2.694,2.694,0,0,0-.19-1,13.838,13.838,0,0,0,8.531-12.77V13.823A13.84,13.84,0,0,0,43.488,0ZM46.2,55.174H24.3a1.432,1.432,0,0,1-1.431-1.43V51.822H47.635v1.922A1.432,1.432,0,0,1,46.2,55.174Zm9.773-24.905a12.494,12.494,0,0,1-8.123,11.692c-.02,0-.039-.006-.059-.006H40.561a.668.668,0,0,0,0,1.335h6.853a1.382,1.382,0,0,1,.221.748v6.448H22.869V44.038a1.4,1.4,0,0,1,.208-.728.668.668,0,0,0-.4-.988,12.477,12.477,0,0,1-6.123-3.838c-.014-.016-.028-.031-.044-.045s-.056-.051-.084-.075-.032-.027-.049-.044l-5.955-5.955a6.07,6.07,0,0,1,0-8.584l1.7-1.7v3.952c0,.015,0,.029,0,.044l-.266.266a.668.668,0,0,0,.945.944l1.669-1.669a.668.668,0,0,0-.944-.944l-.072.072V13.823A12.5,12.5,0,0,1,25.946,1.335H43.488A12.5,12.5,0,0,1,55.977,13.823Z" transform="translate(-7.312)" fill="#33363a"/>
      </g>
    </g>
    <g id="tornado_1_" data-name="tornado (1)" transform="translate(-3709.701 -589)">
      <g id="Grupo_245" data-name="Grupo 245" transform="translate(313 19)">
        <g id="Grupo_244" data-name="Grupo 244" transform="translate(218.668 -128.458)">
          <g id="Grupo_168" data-name="Grupo 168" transform="translate(3.733 1.776)">
            <path id="Trazado_101" data-name="Trazado 101" d="M108.661,82.841a45.546,45.546,0,0,1-41.267,5.126A43.893,43.893,0,0,1,86.675,51.741a45.543,45.543,0,0,1,41.271-5.126A43.907,43.907,0,0,1,108.661,82.841Z" transform="translate(-67.394 -43.854)" fill="#91ea57"/>
          </g>
          <g id="Grupo_169" data-name="Grupo 169" transform="translate(6.734 15.958)">
            <path id="Trazado_102" data-name="Trazado 102" d="M119.444,45.332c-.033,9.818-5.8,19.466-16.576,25.492a46.631,46.631,0,0,1-35.473,3.607" transform="translate(-67.395 -45.332)" fill="#34c166"/>
          </g>
          <path id="Trazado_103" data-name="Trazado 103" d="M127.708,45.133a44.5,44.5,0,0,0-59.983,40.3l-3,2.087a2.658,2.658,0,0,0,1.517,4.841,2.628,2.628,0,0,0,1.513-.477l3.025-2.1a44.473,44.473,0,0,0,58.668-42.145A2.654,2.654,0,0,0,127.708,45.133ZM89.831,54.671a39.267,39.267,0,0,1,30.875-6.051L73.392,81.494A39.258,39.258,0,0,1,89.831,54.671Zm17.463,25.135a39.273,39.273,0,0,1-30.871,6.051l47.31-32.873A39.279,39.279,0,0,1,107.295,79.806Z" transform="translate(-63.58 -42.36)" fill="#33363a"/>
        </g>
      </g>
    </g>
    <g id="Grupo_242" data-name="Grupo 242" transform="translate(18.349 -27.588)">
      <g id="tornado" transform="translate(-3163.314 -617.412)">
        <g id="Grupo_241" data-name="Grupo 241">
          <path id="Trazado_132" data-name="Trazado 132" d="M83.465,36.721h-26.2L42.825,62.154H54.556L39.164,93.545l40.451-36.33H66.472Z" transform="translate(-37.664 -35.221)" fill="#ffbf31"/>
          <path id="Trazado_133" data-name="Trazado 133" d="M59.385,62.663h9.771l-9.834,17.97L87.916,57.626H72.952L92.3,36.721H72.237L55.8,62.663Z" transform="translate(-46.182 -34.221)" fill="#ffd833"/>
          <path id="Trazado_134" data-name="Trazado 134" d="M38.787,95.045a1.123,1.123,0,0,1-1.007-1.618L52.638,63.238H42.511a1.123,1.123,0,0,1-.976-1.678L56.219,35.788a1.124,1.124,0,0,1,.976-.567H83.844a1.123,1.123,0,0,1,.863,1.841L68.956,55.988H79.927a1.123,1.123,0,0,1,.749,1.96L39.535,94.759A1.12,1.12,0,0,1,38.787,95.045Zm5.655-34.054h10a1.122,1.122,0,0,1,1.007,1.618l-13.1,26.619,34.641-31H66.561a1.123,1.123,0,0,1-.863-1.841l15.75-18.925h-23.6Z" transform="translate(-37.664 -35.221)" fill="#33363a"/>
        </g>
      </g>
    </g>
  </g>
</svg>
